<svg width="4951" height="1134" xmlns="http://www.w3.org/2000/svg" xmlns:xlink="http://www.w3.org/1999/xlink" overflow="hidden"><defs><clipPath id="clip0"><rect x="0" y="0" width="4951" height="1134"/></clipPath></defs><g clip-path="url(#clip0)"><rect x="0" y="0" width="4951" height="1134.2" fill="#FFFFFF"/><g><g><g><path d="M1542.57 784.142C1618.71 770.829 1660.28 732.169 1700.86 669.62 1706.51 660.928 1709.28 661.749 1709.16 672.082 1708.06 748.035 1771.43 800.007 1845.83 775.571 1864.86 769.31 1878.38 757.031 1886.41 738.734 1887.14 737.032 1886.68 735.756 1885.04 734.905L1882.85 733.811C1882.41 733.571 1881.86 733.737 1881.62 734.18 1881.6 734.208 1881.59 734.237 1881.58 734.267 1867.53 764.052 1843.83 776.847 1810.46 772.653 1767.69 767.273 1768.7 701.442 1768.6 671.9 1768.18 546.924 1768.15 420.701 1768.51 293.232 1768.6 256.578 1744.81 238.89 1707.06 242.446" stroke="#808080" stroke-width="18.2359" fill="none" transform="matrix(1.00024 0 0 1 -183 175.032)"/><path d="M1707.06 242.446 1641.32 239.893C1639.15 239.792 1637.32 241.464 1637.22 243.627 1637.22 243.689 1637.21 243.751 1637.21 243.813L1637.31 247.278C1637.31 250.014 1638.67 251.351 1641.41 251.29L1705.33 250.561" stroke="#B5B4B5" stroke-width="18.2359" fill="none" transform="matrix(1.00024 0 0 1 -183 175.032)"/><path d="M1705.33 250.561C1707.45 250.196 1708.52 251.564 1708.52 254.664 1708.46 373.379 1708.46 492.49 1708.52 611.995 1708.58 629.319 1705.51 643.391 1699.31 654.211 1676.21 694.634 1649.01 724.814 1617.7 744.752 1576.03 771.285 1506.37 788.062 1464.43 755.42 1430.51 729.069 1423.58 684.847 1423.22 642.814 1422.18 528.353 1422.09 414.379 1422.94 300.892 1423.13 274.997 1413.46 245.819 1383.74 243.722 1357.66 241.899 1328.03 241.595 1294.84 242.81 1292.95 242.871 1292.01 243.813 1292.01 245.637L1291.92 248.372C1291.92 248.919 1292.22 249.193 1292.83 249.193L1356.11 249.831C1359.58 249.831 1362.4 252.648 1362.4 256.123 1362.83 385.779 1362.73 509.814 1362.13 628.225 1361.94 659.955 1366.63 686.094 1376.17 706.639 1392.28 741.227 1422.37 763.748 1466.44 774.203 1480.54 777.546 1494.61 780.859 1508.65 784.142" stroke="#808080" stroke-width="18.2359" fill="none" transform="matrix(1.00024 0 0 1 -183 175.032)"/><path d="M1125.7 761.256 1063.61 760.891C1062.69 760.891 1062.09 761.316 1061.78 762.167L1060.51 765.176C1059.23 768.459 1060.32 770.1 1063.79 770.1L1263.74 769.918C1264.72 769.918 1265.29 769.431 1265.48 768.459L1265.93 766.088C1266.39 763.919 1264.95 761.792 1262.73 761.339 1262.5 761.29 1262.25 761.262 1262.01 761.256L1196.45 761.073C1193.38 761.073 1190.89 758.583 1190.89 755.511 1191.5 515.953 1191.59 282.99 1191.17 56.6223 1191.17 33.2804 1182.5 4.19425 1154.06 2.82656 1125.55 1.48926 1095.52 1.27651 1063.97 2.1883 1062.76 2.24909 1062.03 2.85695 1061.78 4.01189L1060.96 8.20613C1060.54 10.3944 1061.42 11.4886 1063.61 11.4886L1124.51 11.3974C1127.43 11.3974 1129.8 13.7651 1129.8 16.6858L1129.8 757.153C1129.8 759.419 1128.01 761.256 1125.79 761.257 1125.76 761.257 1125.73 761.256 1125.7 761.256" stroke="#808080" stroke-width="18.2359" fill="none" transform="matrix(1.00024 0 0 1 -183 175.032)"/><path d="M2171.8 241.26C2156.97 238.464 2141.95 236.063 2126.76 234.057 2039.77 222.569 1928.81 261.593 1915.49 360.888 1904.83 440.031 1974.85 482.703 2040.14 506.045 2074.6 518.384 2108.73 531.514 2142.53 545.434 2173.35 558.017 2207.54 576.618 2227.24 603.242 2269.09 659.773 2237.08 725.057 2178.82 753.961 2140.34 773.109 2099.13 776.756 2058.1 771.559 1958.26 758.885 1884.86 674.635 1911.03 571.147 1911.45 569.263 1910.78 567.925 1909.02 567.135 1908.29 566.77 1907.56 566.801 1906.83 567.226 1904.95 568.199 1903.61 569.688 1902.82 571.694 1899.9 579.171 1895.8 583.912 1895.07 592.3 1892.46 624.821 1896.77 652.327 1908.02 674.818 1943.58 746.241 2006.1 781.832 2095.57 781.589 2149.31 781.467 2196.69 767.365 2237.72 739.281 2274.44 714.116 2293.4 681.139 2294.62 640.352 2296.08 592.209 2273.92 555.251 2228.15 529.478 2191.74 508.993 2141.44 487.657 2077.25 465.47 2045.39 454.468 2017.34 438.755 1993.09 418.33 1969.32 398.332 1958.93 370.948 1961.9 336.178 1970.57 234.331 2104.33 228.86 2175.17 252.293 2177.85 253.205 2179.25 255.059 2179.37 257.855 2183.38 323.443 2209.06 373.105 2256.41 406.842 2258.94 408.671 2262.5 408.067 2264.35 405.493 2264.48 405.311 2264.6 405.122 2264.71 404.927 2273.28 389.335 2277.38 371.464 2275.29 353.684 2269.15 302.563 2240.64 267.581 2189.76 248.737 2187.28 247.847 2185.58 245.538 2185.48 242.902 2183.65 167.891 2208.27 109.02 2259.33 66.2873 2304.07 28.843 2356.41 10.4248 2416.34 11.0327 2420.84 11.0935 2423.09 13.373 2423.09 17.8711L2423.18 756.788C2423.18 759.306 2421.1 761.347 2418.53 761.347L2356.25 761.164C2354.07 761.164 2353 762.259 2353.06 764.447L2353.06 767.091C2353.11 768.415 2354.2 769.463 2355.52 769.462L2555.21 769.188C2556 769.188 2556.39 768.793 2556.39 768.003L2556.39 765.085C2556.39 763.021 2554.72 761.347 2552.65 761.347L2486.91 761.164C2484.7 761.164 2482.9 759.368 2482.9 757.153 2483.27 631.325 2483.27 505.285 2482.9 379.032 2482.9 368.395 2485.94 358.182 2492.02 348.396 2535.7 278.461 2604.44 229.681 2687.87 242.902 2725.8 248.859 2750.18 273.386 2761 316.483 2764.83 331.741 2766.83 346.36 2767.02 360.34 2768.23 471.458 2768.54 591.51 2767.93 720.498 2767.87 736.485 2772.85 749.524 2782.88 759.614 2790.3 767.03 2801.03 770.647 2815.07 770.465 2844.49 770.039 2872.36 769.796 2898.68 769.735 2900.32 769.735 2901.14 768.915 2901.14 767.273L2901.14 764.812C2901.09 762.883 2899.51 761.346 2897.59 761.347L2835.49 761.164C2831.54 761.104 2829.57 759.128 2829.57 755.238 2829.2 644.668 2829.29 525.557 2829.84 397.906 2829.96 369.276 2827.53 346.116 2822.54 328.428 2803.49 260.955 2741.58 232.142 2673.56 230.866 2597.51 229.468 2536.79 264.815 2491.38 336.907 2486.15 345.174 2483.57 344.445 2483.63 334.719 2484.06 248.342 2484.09 159.655 2483.72 68.658 2483.54 27.5361 2477.25 0.364717 2427.74 1.45887 2361.42 2.97852 2307.17 19.178 2264.98 50.0574 2203.04 95.2823 2174.26 157.011 2178.64 235.242 2178.88 240.105 2176.6 242.111 2171.8 241.26" stroke="#808080" stroke-width="18.2359" fill="none" transform="matrix(1.00024 0 0 1 -183 175.032)"/><path d="M501.395 760.435 440.487 759.432C438.373 759.381 436.617 761.054 436.566 763.168 436.565 763.23 436.565 763.291 436.566 763.353L436.749 767.273C436.931 772.501 439.636 775.054 444.864 774.932L581.45 771.194" stroke="#B5B4B5" stroke-width="18.2359" fill="none" transform="matrix(1.00024 0 0 1 -183 175.032)"/><path d="M581.45 771.194C646.795 773.626 712.049 773.109 777.212 769.644 796.238 768.611 814.352 766.179 831.555 762.35 855.869 756.879 873.497 751.864 884.439 747.305 939.785 724.328 1003.06 672.721 1014.64 611.083 1039.81 477.323 940.514 404.745 820.34 395.536 818.881 395.414 818.151 394.654 818.151 393.256 818.091 391.858 818.759 391.037 820.157 390.794 889.545 378.667 965.588 317.942 966.774 240.713 968.871 107.774 851.797 61.7284 738.461 61.8195 642.723 61.8195 543.428 61.9107 440.578 62.0931 438.937 62.0931 438.147 62.8833 438.208 64.4637L438.39 67.3815C438.451 68.2325 438.907 68.658 439.758 68.658L501.03 68.5668C504.202 68.5668 506.774 71.1386 506.774 74.3111 506.045 300.74 506.106 528.171 506.957 756.606 506.957 757.456 506.683 758.125 506.136 758.611 505.346 759.341 503.765 759.949 501.395 760.435" stroke="#808080" stroke-width="18.2359" fill="none" transform="matrix(1.00024 0 0 1 -183 175.032)"/><path d="M581.45 771.194C564.734 770.769 547.957 770.86 531.119 771.468 513.674 772.076 503.765 768.398 501.395 760.435" stroke="#363435" stroke-width="18.2359" fill="none" transform="matrix(1.00024 0 0 1 -183 175.032)"/><path d="M3367.71 759.614 3306.34 758.338C3300.81 758.277 3299.02 760.83 3300.96 765.997L3302.42 769.826C3303.88 773.656 3306.65 775.48 3310.72 775.297L3412.29 770.647" stroke="#B5B4B5" stroke-width="18.2359" fill="none" transform="matrix(1.00024 0 0 1 -183 175.032)"/><path d="M3412.29 770.647C3474.42 772.531 3536.75 773.231 3599.3 772.744 3702.24 771.924 3827.43 740.376 3872.75 635.064 3879.5 619.441 3883.42 603.759 3884.51 588.015 3893.08 464.832 3796.98 406.021 3686.65 395.08 3681 394.533 3680.79 393.135 3686.01 390.885 3696.5 386.418 3707.8 387.329 3718.56 382.771 3758.07 366.115 3788.5 341.892 3809.83 310.101 3831.9 277.337 3838.16 239.224 3828.62 195.762 3806.55 94.9176 3697.87 62.3666 3608.42 62.1843 3507.51 62.0019 3406.37 62.0323 3304.97 62.2754 3303.76 62.2754 3303.15 62.8833 3303.15 64.099L3303.24 66.652C3303.3 68.0501 3304.03 68.7492 3305.43 68.7492L3364.61 68.9315C3368.08 68.9315 3370.9 71.7891 3370.9 75.3141L3370.9 754.6C3370.9 755.825 3370.44 756.974 3369.62 757.791 3369.07 758.338 3368.44 758.946 3367.71 759.614" stroke="#808080" stroke-width="18.2359" fill="none" transform="matrix(1.00024 0 0 1 -183 175.032)"/><path d="M3412.29 770.647C3387.98 773.808 3373.12 770.13 3367.71 759.614" stroke="#363435" stroke-width="18.2359" fill="none" transform="matrix(1.00024 0 0 1 -183 175.032)"/><path d="M4274.67 484.8C4238.68 480.727 4203.46 481.578 4168.99 487.353" stroke="#B5B4B5" stroke-width="18.2359" fill="none" transform="matrix(1.00024 0 0 1 -183 175.032)"/><path d="M4168.99 487.353C4111 488.508 4059.24 499.115 4013.71 519.175 3965.57 540.328 3937.52 576.648 3929.55 628.134 3921.62 679.468 3947.24 736.728 3994.38 760.07 4052.19 788.579 4112.79 789.643 4176.19 763.262 4226.4 742.351 4259.68 702.232 4276.03 642.905 4276.31 642.002 4275.89 641.015 4275.03 640.534L4272.57 639.258C4270.81 638.285 4269.68 638.771 4269.2 640.717 4247.49 722.687 4186.13 768.459 4102.52 772.744 4043.44 775.753 4000.95 736.09 3993.83 678.647 3991.34 658.709 3990.92 640.777 3992.56 624.851 3996.33 588.866 4016.08 559.689 4051.82 537.319 4081.91 518.415 4102.06 508.172 4112.28 506.592 4135.25 503.006 4158.17 498.872 4181.02 494.192" stroke="#808080" stroke-width="18.2359" fill="none" transform="matrix(1.00024 0 0 1 -183 175.032)"/><path d="M4181.02 494.192 4272.02 493.553" stroke="#B5B4B5" stroke-width="18.2359" fill="none" transform="matrix(1.00024 0 0 1 -183 175.032)"/><path d="M4272.02 493.553C4275.67 492.155 4279.19 491.851 4282.6 492.642 4285.58 493.371 4287.04 495.255 4286.98 498.295 4286.19 550.084 4286.25 602.968 4287.16 656.947 4288.16 724.055 4321.35 779.309 4396.66 778.58 4431.37 778.276 4455.17 763.565 4468.06 734.449 4468.36 733.719 4468.15 733.172 4467.42 732.808L4465.41 731.805C4463.71 730.954 4462.37 731.349 4461.4 732.99 4441.16 768.003 4395.3 789.704 4363.38 754.873 4358.34 749.463 4353.57 734.023 4349.07 708.554" stroke="#808080" stroke-width="18.2359" fill="none" transform="matrix(1.00024 0 0 1 -183 175.032)"/><path d="M4349.07 708.554C4350.71 606.859 4351.17 505.163 4350.44 403.468 4350.38 393.986 4348.86 378.12 4345.88 355.873" stroke="#B5B4B5" stroke-width="18.2359" fill="none" transform="matrix(1.00024 0 0 1 -183 175.032)"/><path d="M4345.88 355.873C4337.25 315.511 4316.58 285.482 4283.88 265.788 4209.29 220.836 4070.88 212.448 4003.41 276.364 3967.73 310.101 3957.73 349.916 3973.41 395.809 3974.32 398.362 3976.05 400.095 3978.61 401.006 3979.64 401.371 3980.67 401.553 3981.71 401.553 3984.17 401.637 3986.23 399.665 3986.3 397.15 3986.31 396.634 3986.24 396.119 3986.08 395.627 3985.29 393.256 3984.02 390.977 3982.25 388.788 3980.19 386.296 3979 383.439 3978.7 380.217 3972.98 321.133 3996.54 280.072 4049.36 257.034 4130.6 221.657 4237.56 232.325 4275.58 323.778 4293.18 365.994 4285.61 430.184 4287.07 478.782 4287.19 482.247 4285.55 484.314 4282.14 484.982 4279.89 485.408 4277.4 485.347 4274.67 484.8" stroke="#808080" stroke-width="18.2359" fill="none" transform="matrix(1.00024 0 0 1 -183 175.032)"/><path d="M4345.88 355.873 4349.07 708.554" stroke="#363435" stroke-width="18.2359" fill="none" transform="matrix(1.00024 0 0 1 -183 175.032)"/><path d="M4272.02 493.553C4272.08 489.906 4272.96 486.988 4274.67 484.8" stroke="#363435" stroke-width="18.2359" fill="none" transform="matrix(1.00024 0 0 1 -183 175.032)"/><path d="M4181.02 494.192C4182.12 490.544 4178.11 488.265 4168.99 487.353" stroke="#363435" stroke-width="18.2359" fill="none" transform="matrix(1.00024 0 0 1 -183 175.032)"/><path d="M4553.77 242.993 4485.93 241.534C4483.31 241.473 4482.04 242.75 4482.1 245.363L4482.19 248.19C4482.24 249.851 4483.63 251.157 4485.29 251.108 4485.29 251.108 4485.29 251.108 4485.29 251.108L4545.29 250.287" stroke="#B5B4B5" stroke-width="18.2359" fill="none" transform="matrix(1.00024 0 0 1 -183 175.032)"/><path d="M4545.29 250.287C4549.6 249.193 4551.79 250.105 4551.85 253.022 4552.88 361.343 4552.94 529.964 4552.03 758.885" stroke="#808080" stroke-width="18.2359" fill="none" transform="matrix(1.00024 0 0 1 -183 175.032)"/><path d="M4552.03 758.885 4488.57 760.709C4486.1 760.734 4484.13 762.837 4484.17 765.404 4484.17 765.541 4484.18 765.678 4484.2 765.815L4484.56 769.188C4485.11 773.808 4487.69 775.996 4492.31 775.753L4608.66 770.829" stroke="#B5B4B5" stroke-width="18.2359" fill="none" transform="matrix(1.00024 0 0 1 -183 175.032)"/><path d="M4608.66 770.829 4683.51 772.106C4684.84 772.107 4685.93 771.059 4685.98 769.735L4685.98 767.091C4686.04 765.024 4685.03 763.991 4682.97 763.991L4622.79 763.809C4617.59 763.758 4613.4 759.568 4613.4 754.417L4612.94 576.982" stroke="#808080" stroke-width="18.2359" fill="none" transform="matrix(1.00024 0 0 1 -183 175.032)"/><path d="M4612.94 576.982 4614.58 423.436" stroke="#B5B4B5" stroke-width="18.2359" fill="none" transform="matrix(1.00024 0 0 1 -183 175.032)"/><path d="M4614.58 423.436C4627.62 333.898 4687.34 229.316 4793.66 241.807 4843.5 247.643 4869.03 275.422 4870.25 325.145 4870.67 344.901 4863.84 362.286 4849.73 377.3 4847.12 380.035 4847.21 382.71 4850.01 385.324L4851.92 386.965C4852.53 387.573 4853.14 387.573 4853.75 386.965 4875.69 366.784 4884.23 340.889 4879.37 309.28 4874.32 276.638 4857.51 254.481 4828.94 242.81 4763.2 215.912 4693.45 241.899 4653.42 300.253 4638.23 322.501 4625.65 347.059 4615.68 373.926 4615.31 374.899 4614.61 375.385 4613.58 375.385 4611.88 375.446 4611.09 374.625 4611.21 372.923 4616.22 316.483 4628.99 233.692 4553.77 242.993" stroke="#808080" stroke-width="18.2359" fill="none" transform="matrix(1.00024 0 0 1 -183 175.032)"/><path d="M4614.58 423.436C4610.27 448.48 4607.9 466.899 4607.47 478.691 4606.62 505.133 4608.44 537.897 4612.94 576.982" stroke="#363435" stroke-width="18.2359" fill="none" transform="matrix(1.00024 0 0 1 -183 175.032)"/><path d="M4608.66 770.829C4595.22 770.586 4581.7 770.1 4568.08 769.371 4558.72 768.884 4553.37 765.389 4552.03 758.885" stroke="#363435" stroke-width="18.2359" fill="none" transform="matrix(1.00024 0 0 1 -183 175.032)"/><path d="M4545.29 250.287C4547.35 244.148 4550.18 241.716 4553.77 242.993" stroke="#363435" stroke-width="18.2359" fill="none" transform="matrix(1.00024 0 0 1 -183 175.032)"/><path d="M3211.52 435.746C3211.52 433.53 3209.72 431.734 3207.5 431.734L2962.78 431.734C2960.56 431.734 2958.77 433.53 2958.77 435.746L2958.77 462.552C2958.77 464.768 2960.56 466.564 2962.78 466.564L3207.5 466.564C3209.72 466.564 3211.52 464.768 3211.52 462.552L3211.52 435.746" stroke="#808080" stroke-width="18.2359" fill="none" transform="matrix(1.00024 0 0 1 -183 175.032)"/><path d="M2189.31 260.59C2190.58 306.818 2210.82 354.687 2243.92 384.868 2257.05 396.843 2264.19 393.986 2265.35 376.297 2268.81 324.993 2245.14 285.421 2194.32 257.581 2192.69 256.675 2190.64 257.259 2189.73 258.887 2189.44 259.407 2189.29 259.995 2189.31 260.59" stroke="#808080" stroke-width="18.2359" fill="none" transform="matrix(1.00024 0 0 1 -183 175.032)"/><path d="M899.119 180.717C880.974 103.306 812.407 68.9315 738.096 68.5668 681.99 68.3844 626.493 68.4452 571.603 68.7492 569.437 68.7492 567.682 70.5045 567.682 72.6699L567.682 389.427C567.682 391.068 568.472 391.888 570.053 391.888 630.505 392.071 691.777 389.882 752.32 391.615 793.351 392.709 841.676 383.044 870.671 352.864 911.519 310.465 911.793 234.969 899.119 180.717" stroke="#808080" stroke-width="18.2359" fill="none" transform="matrix(1.00024 0 0 1 -183 175.032)"/><path d="M959.844 584.185C961.576 514.342 942.155 448.875 875.412 418.878 852.253 408.483 827.026 402.739 799.733 401.645 729.586 398.848 653.482 398.18 571.42 399.639 569.341 399.688 567.681 401.388 567.682 403.468L567.682 756.606C567.681 758.685 569.341 760.385 571.42 760.435 637.07 761.955 703.387 761.742 770.374 759.797 879.515 756.514 956.926 699.345 959.844 584.185" stroke="#808080" stroke-width="18.2359" fill="none" transform="matrix(1.00024 0 0 1 -183 175.032)"/><path d="M3765.89 188.832C3750.39 109.962 3685.01 70.5727 3608.05 69.0227 3550.73 67.9286 3492.8 67.9285 3434.27 69.0227 3432.99 69.0718 3431.99 70.0781 3431.99 71.3022L3432.26 387.147C3432.26 390.49 3433.93 392.162 3437.28 392.162 3491.74 391.736 3550.76 391.645 3614.35 391.888 3683.19 392.071 3747.1 371.282 3764.7 296.788 3772.85 262.323 3773.24 226.337 3765.89 188.832" stroke="#808080" stroke-width="18.2359" fill="none" transform="matrix(1.00024 0 0 1 -183 175.032)"/><path d="M3613.89 760.8C3702.06 760.07 3784.49 735.087 3814.21 645.914 3830.99 595.492 3828.53 508.689 3796.52 466.108 3766.68 426.537 3725.68 405.383 3673.52 402.648 3601.92 398.879 3522.32 398.028 3434.72 400.095 3433.3 400.144 3432.17 401.313 3432.17 402.739L3432.17 756.879C3432.17 759.095 3433.93 760.891 3436.09 760.891 3497.06 761.316 3556.33 761.286 3613.89 760.8" stroke="#808080" stroke-width="18.2359" fill="none" transform="matrix(1.00024 0 0 1 -183 175.032)"/><path d="M1707.06 242.446 1705.33 250.561" stroke="#363435" stroke-width="18.2359" fill="none" transform="matrix(1.00024 0 0 1 -183 175.032)"/><path d="M0 0 5315.75 0 5315.75 784.142 1542.57 784.142C1618.71 770.829 1660.28 732.169 1700.86 669.62 1706.51 660.928 1709.28 661.749 1709.16 672.082 1708.06 748.035 1771.43 800.007 1845.83 775.571 1864.86 769.31 1878.38 757.031 1886.41 738.734 1887.14 737.032 1886.68 735.756 1885.04 734.905L1882.85 733.811C1882.41 733.571 1881.86 733.737 1881.62 734.18 1881.6 734.208 1881.59 734.237 1881.58 734.267 1867.53 764.052 1843.83 776.847 1810.46 772.653 1767.69 767.273 1768.7 701.442 1768.6 671.9 1768.18 546.924 1768.15 420.701 1768.51 293.232 1768.6 256.578 1744.81 238.89 1707.06 242.446L1641.32 239.893C1639.15 239.792 1637.32 241.464 1637.22 243.627 1637.22 243.689 1637.21 243.751 1637.21 243.813L1637.31 247.278C1637.31 250.014 1638.67 251.351 1641.41 251.29L1705.33 250.561C1707.45 250.196 1708.52 251.564 1708.52 254.664 1708.46 373.379 1708.46 492.49 1708.52 611.995 1708.58 629.319 1705.51 643.391 1699.31 654.211 1676.21 694.634 1649.01 724.814 1617.7 744.752 1576.03 771.285 1506.37 788.062 1464.43 755.42 1430.51 729.069 1423.58 684.847 1423.22 642.814 1422.18 528.353 1422.09 414.379 1422.94 300.892 1423.13 274.997 1413.46 245.819 1383.74 243.722 1357.66 241.899 1328.03 241.595 1294.84 242.81 1292.95 242.871 1292.01 243.813 1292.01 245.637L1291.92 248.372C1291.92 248.919 1292.22 249.193 1292.83 249.193L1356.11 249.831C1359.58 249.831 1362.4 252.648 1362.4 256.123 1362.83 385.779 1362.73 509.814 1362.13 628.225 1361.94 659.955 1366.63 686.094 1376.17 706.639 1392.28 741.227 1422.37 763.748 1466.44 774.203 1480.54 777.546 1494.61 780.859 1508.65 784.142L0 784.142 0 0ZM1125.7 761.256 1063.61 760.891C1062.69 760.891 1062.09 761.316 1061.78 762.167L1060.51 765.176C1059.23 768.459 1060.32 770.1 1063.79 770.1L1263.74 769.918C1264.72 769.918 1265.29 769.431 1265.48 768.459L1265.93 766.088C1266.39 763.919 1264.95 761.792 1262.73 761.339 1262.5 761.29 1262.25 761.262 1262.01 761.256L1196.45 761.073C1193.38 761.073 1190.89 758.583 1190.89 755.511 1191.5 515.953 1191.59 282.99 1191.17 56.6223 1191.17 33.2804 1182.5 4.19425 1154.06 2.82656 1125.55 1.48926 1095.52 1.27651 1063.97 2.1883 1062.76 2.24909 1062.03 2.85695 1061.78 4.01189L1060.96 8.20613C1060.54 10.3944 1061.42 11.4886 1063.61 11.4886L1124.51 11.3974C1127.43 11.3974 1129.8 13.7651 1129.8 16.6858L1129.8 757.153C1129.8 759.419 1128.01 761.256 1125.79 761.257 1125.76 761.257 1125.73 761.256 1125.7 761.256ZM2171.8 241.26C2156.97 238.464 2141.95 236.063 2126.76 234.057 2039.77 222.569 1928.81 261.593 1915.49 360.888 1904.83 440.031 1974.85 482.703 2040.14 506.045 2074.6 518.384 2108.73 531.514 2142.53 545.434 2173.35 558.017 2207.54 576.618 2227.24 603.242 2269.09 659.773 2237.08 725.057 2178.82 753.961 2140.34 773.109 2099.13 776.756 2058.1 771.559 1958.26 758.885 1884.86 674.635 1911.03 571.147 1911.45 569.263 1910.78 567.925 1909.02 567.135 1908.29 566.77 1907.56 566.801 1906.83 567.226 1904.95 568.199 1903.61 569.688 1902.82 571.694 1899.9 579.171 1895.8 583.912 1895.07 592.3 1892.46 624.821 1896.77 652.327 1908.02 674.818 1943.58 746.241 2006.1 781.832 2095.57 781.589 2149.31 781.467 2196.69 767.365 2237.72 739.281 2274.44 714.116 2293.4 681.139 2294.62 640.352 2296.08 592.209 2273.92 555.251 2228.15 529.478 2191.74 508.993 2141.44 487.657 2077.25 465.47 2045.39 454.468 2017.34 438.755 1993.09 418.33 1969.32 398.332 1958.93 370.948 1961.9 336.178 1970.57 234.331 2104.33 228.86 2175.17 252.293 2177.85 253.205 2179.25 255.059 2179.37 257.855 2183.38 323.443 2209.06 373.105 2256.41 406.842 2258.94 408.671 2262.5 408.067 2264.35 405.493 2264.48 405.311 2264.6 405.122 2264.71 404.927 2273.28 389.335 2277.38 371.464 2275.29 353.684 2269.15 302.563 2240.64 267.581 2189.76 248.737 2187.28 247.847 2185.58 245.538 2185.48 242.902 2183.65 167.891 2208.27 109.02 2259.33 66.2873 2304.07 28.843 2356.41 10.4248 2416.34 11.0327 2420.84 11.0935 2423.09 13.373 2423.09 17.8711L2423.18 756.788C2423.18 759.306 2421.1 761.347 2418.53 761.347L2356.25 761.164C2354.07 761.164 2353 762.259 2353.06 764.447L2353.06 767.091C2353.11 768.415 2354.2 769.463 2355.52 769.462L2555.21 769.188C2556 769.188 2556.39 768.793 2556.39 768.003L2556.39 765.085C2556.39 763.021 2554.72 761.347 2552.65 761.347L2486.91 761.164C2484.7 761.164 2482.9 759.368 2482.9 757.153 2483.27 631.325 2483.27 505.285 2482.9 379.032 2482.9 368.395 2485.94 358.182 2492.02 348.396 2535.7 278.461 2604.44 229.681 2687.87 242.902 2725.8 248.859 2750.18 273.386 2761 316.483 2764.83 331.741 2766.83 346.36 2767.02 360.34 2768.23 471.458 2768.54 591.51 2767.93 720.498 2767.87 736.485 2772.85 749.524 2782.88 759.614 2790.3 767.03 2801.03 770.647 2815.07 770.465 2844.49 770.039 2872.36 769.796 2898.68 769.735 2900.32 769.735 2901.14 768.915 2901.14 767.273L2901.14 764.812C2901.09 762.883 2899.51 761.346 2897.59 761.347L2835.49 761.164C2831.54 761.104 2829.57 759.128 2829.57 755.238 2829.2 644.668 2829.29 525.557 2829.84 397.906 2829.96 369.276 2827.53 346.116 2822.54 328.428 2803.49 260.955 2741.58 232.142 2673.56 230.866 2597.51 229.468 2536.79 264.815 2491.38 336.907 2486.15 345.174 2483.57 344.445 2483.63 334.719 2484.06 248.342 2484.09 159.655 2483.72 68.658 2483.54 27.5361 2477.25 0.364717 2427.74 1.45887 2361.42 2.97852 2307.17 19.178 2264.98 50.0574 2203.04 95.2823 2174.26 157.011 2178.64 235.242 2178.88 240.105 2176.6 242.111 2171.8 241.26ZM501.395 760.435 440.487 759.432C438.373 759.381 436.617 761.054 436.566 763.168 436.565 763.23 436.565 763.291 436.566 763.353L436.749 767.273C436.931 772.501 439.636 775.054 444.864 774.932L581.45 771.194C646.795 773.626 712.049 773.109 777.212 769.644 796.238 768.611 814.352 766.179 831.555 762.35 855.869 756.879 873.497 751.864 884.439 747.305 939.785 724.328 1003.06 672.721 1014.64 611.083 1039.81 477.323 940.514 404.745 820.34 395.536 818.881 395.414 818.151 394.654 818.151 393.256 818.091 391.858 818.759 391.037 820.157 390.794 889.545 378.667 965.588 317.942 966.774 240.713 968.871 107.774 851.797 61.7284 738.461 61.8195 642.723 61.8195 543.428 61.9107 440.578 62.0931 438.937 62.0931 438.147 62.8833 438.208 64.4637L438.39 67.3815C438.451 68.2325 438.907 68.658 439.758 68.658L501.03 68.5668C504.202 68.5668 506.774 71.1386 506.774 74.3111 506.045 300.74 506.106 528.171 506.957 756.606 506.957 757.456 506.683 758.125 506.136 758.611 505.346 759.341 503.765 759.949 501.395 760.435ZM3367.71 759.614 3306.34 758.338C3300.81 758.277 3299.02 760.83 3300.96 765.997L3302.42 769.826C3303.88 773.656 3306.65 775.48 3310.72 775.297L3412.29 770.647C3474.42 772.531 3536.75 773.231 3599.3 772.744 3702.24 771.924 3827.43 740.376 3872.75 635.064 3879.5 619.441 3883.42 603.759 3884.51 588.015 3893.08 464.832 3796.98 406.021 3686.65 395.08 3681 394.533 3680.79 393.135 3686.01 390.885 3696.5 386.418 3707.8 387.329 3718.56 382.771 3758.07 366.115 3788.5 341.892 3809.83 310.101 3831.9 277.337 3838.16 239.224 3828.62 195.762 3806.55 94.9176 3697.87 62.3666 3608.42 62.1843 3507.51 62.0019 3406.37 62.0323 3304.97 62.2754 3303.76 62.2754 3303.15 62.8833 3303.15 64.099L3303.24 66.652C3303.3 68.0501 3304.03 68.7492 3305.43 68.7492L3364.61 68.9315C3368.08 68.9315 3370.9 71.7891 3370.9 75.3141L3370.9 754.6C3370.9 755.825 3370.44 756.974 3369.62 757.791 3369.07 758.338 3368.44 758.946 3367.71 759.614ZM4274.67 484.8C4238.68 480.727 4203.46 481.578 4168.99 487.353 4111 488.508 4059.24 499.115 4013.71 519.175 3965.57 540.328 3937.52 576.648 3929.55 628.134 3921.62 679.468 3947.24 736.728 3994.38 760.07 4052.19 788.579 4112.79 789.643 4176.19 763.262 4226.4 742.351 4259.68 702.232 4276.03 642.905 4276.31 642.002 4275.89 641.015 4275.03 640.534L4272.57 639.258C4270.81 638.285 4269.68 638.771 4269.2 640.717 4247.49 722.687 4186.13 768.459 4102.52 772.744 4043.44 775.753 4000.95 736.09 3993.83 678.647 3991.34 658.709 3990.92 640.777 3992.56 624.851 3996.33 588.866 4016.08 559.689 4051.82 537.319 4081.91 518.415 4102.06 508.172 4112.28 506.592 4135.25 503.006 4158.17 498.872 4181.02 494.192L4272.02 493.553C4275.67 492.155 4279.19 491.851 4282.6 492.642 4285.58 493.371 4287.04 495.255 4286.98 498.295 4286.19 550.084 4286.25 602.968 4287.16 656.947 4288.16 724.055 4321.35 779.309 4396.66 778.58 4431.37 778.276 4455.17 763.565 4468.06 734.449 4468.36 733.719 4468.15 733.172 4467.42 732.808L4465.41 731.805C4463.71 730.954 4462.37 731.349 4461.4 732.99 4441.16 768.003 4395.3 789.704 4363.38 754.873 4358.34 749.463 4353.57 734.023 4349.07 708.554 4350.71 606.859 4351.17 505.163 4350.44 403.468 4350.38 393.986 4348.86 378.12 4345.88 355.873 4337.25 315.511 4316.58 285.482 4283.88 265.788 4209.29 220.836 4070.88 212.448 4003.41 276.364 3967.73 310.101 3957.73 349.916 3973.41 395.809 3974.32 398.362 3976.05 400.095 3978.61 401.006 3979.64 401.371 3980.67 401.553 3981.71 401.553 3984.17 401.637 3986.23 399.665 3986.3 397.15 3986.31 396.634 3986.24 396.119 3986.08 395.627 3985.29 393.256 3984.02 390.977 3982.25 388.788 3980.19 386.296 3979 383.439 3978.7 380.217 3972.98 321.133 3996.54 280.072 4049.36 257.034 4130.6 221.657 4237.56 232.325 4275.58 323.778 4293.18 365.994 4285.61 430.184 4287.07 478.782 4287.19 482.247 4285.55 484.314 4282.14 484.982 4279.89 485.408 4277.4 485.347 4274.67 484.8ZM4553.77 242.993 4485.93 241.534C4483.31 241.473 4482.04 242.75 4482.1 245.363L4482.19 248.19C4482.24 249.851 4483.63 251.157 4485.29 251.108 4485.29 251.108 4485.29 251.108 4485.29 251.108L4545.29 250.287C4549.6 249.193 4551.79 250.105 4551.85 253.022 4552.88 361.343 4552.94 529.964 4552.03 758.885L4488.57 760.709C4486.1 760.734 4484.13 762.837 4484.17 765.404 4484.17 765.541 4484.18 765.678 4484.2 765.815L4484.56 769.188C4485.11 773.808 4487.69 775.996 4492.31 775.753L4608.66 770.829 4683.51 772.106C4684.84 772.107 4685.93 771.059 4685.98 769.735L4685.98 767.091C4686.04 765.024 4685.03 763.991 4682.97 763.991L4622.79 763.809C4617.59 763.758 4613.4 759.568 4613.4 754.417L4612.94 576.982 4614.58 423.436C4627.62 333.898 4687.34 229.316 4793.66 241.807 4843.5 247.643 4869.03 275.422 4870.25 325.145 4870.67 344.901 4863.84 362.286 4849.73 377.3 4847.12 380.035 4847.21 382.71 4850.01 385.324L4851.92 386.965C4852.53 387.573 4853.14 387.573 4853.75 386.965 4875.69 366.784 4884.23 340.889 4879.37 309.28 4874.32 276.638 4857.51 254.481 4828.94 242.81 4763.2 215.912 4693.45 241.899 4653.42 300.253 4638.23 322.501 4625.65 347.059 4615.68 373.926 4615.31 374.899 4614.61 375.385 4613.58 375.385 4611.88 375.446 4611.09 374.625 4611.21 372.923 4616.22 316.483 4628.99 233.692 4553.77 242.993ZM3211.52 435.746C3211.52 433.53 3209.72 431.734 3207.5 431.734L2962.78 431.734C2960.56 431.734 2958.77 433.53 2958.77 435.746L2958.77 462.552C2958.77 464.768 2960.56 466.564 2962.78 466.564L3207.5 466.564C3209.72 466.564 3211.52 464.768 3211.52 462.552L3211.52 435.746Z" fill="#FFFFFF" transform="matrix(1.00024 0 0 1 -183 175.032)"/><path d="M1125.7 761.256C1127.91 761.306 1129.75 759.51 1129.8 757.245 1129.8 757.214 1129.8 757.183 1129.8 757.153L1129.8 16.6858C1129.8 13.7651 1127.43 11.3974 1124.51 11.3974L1063.61 11.4886C1061.42 11.4886 1060.54 10.3944 1060.96 8.20613L1061.78 4.01189C1062.03 2.85695 1062.76 2.24909 1063.97 2.1883 1095.52 1.27651 1125.55 1.48926 1154.06 2.82656 1182.5 4.19425 1191.17 33.2804 1191.17 56.6223 1191.59 282.99 1191.5 515.953 1190.89 755.511 1190.89 758.583 1193.38 761.073 1196.45 761.073L1262.01 761.256C1264.28 761.32 1266.07 763.168 1266.01 765.383 1266.01 765.62 1265.98 765.856 1265.93 766.088L1265.48 768.459C1265.29 769.431 1264.72 769.918 1263.74 769.918L1063.79 770.1C1060.32 770.1 1059.23 768.459 1060.51 765.176L1061.78 762.167C1062.09 761.316 1062.69 760.891 1063.61 760.891L1125.7 761.256Z" transform="matrix(1.00024 0 0 1 -183 175.032)"/><path d="M2178.64 235.242C2174.26 157.011 2203.04 95.2823 2264.98 50.0574 2307.17 19.178 2361.42 2.97852 2427.74 1.45887 2477.25 0.364717 2483.54 27.5361 2483.72 68.658 2484.09 159.655 2484.06 248.342 2483.63 334.719 2483.57 344.445 2486.15 345.174 2491.38 336.907 2536.79 264.815 2597.51 229.468 2673.56 230.866 2741.58 232.142 2803.49 260.955 2822.54 328.428 2827.53 346.116 2829.96 369.276 2829.84 397.906 2829.29 525.557 2829.2 644.668 2829.57 755.238 2829.57 759.128 2831.54 761.104 2835.49 761.164L2897.59 761.347C2899.51 761.346 2901.09 762.883 2901.14 764.812L2901.14 767.273C2901.14 768.915 2900.32 769.735 2898.68 769.735 2872.36 769.796 2844.49 770.039 2815.07 770.465 2801.03 770.647 2790.3 767.03 2782.88 759.614 2772.85 749.524 2767.87 736.485 2767.93 720.498 2768.54 591.51 2768.23 471.458 2767.02 360.34 2766.83 346.36 2764.83 331.741 2761 316.483 2750.18 273.386 2725.8 248.859 2687.87 242.902 2604.44 229.681 2535.7 278.461 2492.02 348.396 2485.94 358.182 2482.9 368.395 2482.9 379.032 2483.27 505.285 2483.27 631.325 2482.9 757.153 2482.9 759.368 2484.7 761.164 2486.91 761.164L2552.65 761.347C2554.72 761.347 2556.39 763.021 2556.39 765.085L2556.39 768.003C2556.39 768.793 2556 769.188 2555.21 769.188L2355.52 769.462C2354.2 769.463 2353.11 768.415 2353.06 767.091L2353.06 764.447C2353 762.259 2354.07 761.164 2356.25 761.164L2418.53 761.347C2421.1 761.347 2423.18 759.306 2423.18 756.788L2423.09 17.8711C2423.09 13.373 2420.84 11.0935 2416.34 11.0327 2356.41 10.4248 2304.07 28.843 2259.33 66.2873 2208.27 109.02 2183.65 167.891 2185.48 242.902 2185.58 245.538 2187.28 247.847 2189.76 248.737 2240.64 267.581 2269.15 302.563 2275.29 353.684 2277.38 371.464 2273.28 389.335 2264.71 404.927 2263.16 407.697 2259.7 408.713 2256.97 407.196 2256.78 407.089 2256.59 406.971 2256.41 406.842 2209.06 373.105 2183.38 323.443 2179.37 257.855 2179.25 255.059 2177.85 253.205 2175.17 252.293 2104.33 228.86 1970.57 234.331 1961.9 336.178 1958.93 370.948 1969.32 398.332 1993.09 418.33 2017.34 438.755 2045.39 454.468 2077.25 465.47 2141.44 487.657 2191.74 508.993 2228.15 529.478 2273.92 555.251 2296.08 592.209 2294.62 640.352 2293.4 681.139 2274.44 714.116 2237.72 739.281 2196.69 767.365 2149.31 781.467 2095.57 781.589 2006.1 781.832 1943.58 746.241 1908.02 674.818 1896.77 652.327 1892.46 624.821 1895.07 592.3 1895.8 583.912 1899.9 579.171 1902.82 571.694 1903.61 569.688 1904.95 568.199 1906.83 567.226 1907.56 566.801 1908.29 566.77 1909.02 567.135 1910.78 567.925 1911.45 569.263 1911.03 571.147 1884.86 674.635 1958.26 758.885 2058.1 771.559 2099.13 776.756 2140.34 773.109 2178.82 753.961 2237.08 725.057 2269.09 659.773 2227.24 603.242 2207.54 576.618 2173.35 558.017 2142.53 545.434 2108.73 531.514 2074.6 518.384 2040.14 506.045 1974.85 482.703 1904.83 440.031 1915.49 360.888 1928.81 261.593 2039.77 222.569 2126.76 234.057 2141.95 236.063 2156.97 238.464 2171.8 241.26 2176.6 242.111 2178.88 240.105 2178.64 235.242ZM2189.31 260.59C2190.58 306.818 2210.82 354.687 2243.92 384.868 2257.05 396.843 2264.19 393.986 2265.35 376.297 2268.81 324.993 2245.14 285.421 2194.32 257.581 2192.69 256.675 2190.64 257.259 2189.73 258.887 2189.44 259.407 2189.29 259.995 2189.31 260.59Z" transform="matrix(1.00024 0 0 1 -183 175.032)"/><path d="M581.45 771.194C564.734 770.769 547.957 770.86 531.119 771.468 513.674 772.076 503.765 768.398 501.395 760.435 503.765 759.949 505.346 759.341 506.136 758.611 506.683 758.125 506.957 757.456 506.957 756.606 506.106 528.171 506.045 300.74 506.774 74.3111 506.774 71.1386 504.203 68.5668 501.03 68.5668L439.758 68.658C438.907 68.658 438.451 68.2325 438.39 67.3815L438.208 64.4637C438.147 62.8833 438.937 62.0931 440.578 62.0931 543.428 61.9107 642.723 61.8195 738.461 61.8195 851.797 61.7284 968.871 107.774 966.774 240.713 965.588 317.942 889.545 378.667 820.157 390.794 818.759 391.037 818.091 391.858 818.151 393.256 818.151 394.654 818.881 395.414 820.34 395.536 940.514 404.745 1039.81 477.323 1014.64 611.083 1003.06 672.721 939.785 724.328 884.439 747.305 873.497 751.864 855.869 756.879 831.555 762.35 814.352 766.179 796.238 768.611 777.212 769.644 712.049 773.109 646.795 773.626 581.45 771.194ZM899.119 180.717C880.974 103.306 812.407 68.9315 738.096 68.5668 681.99 68.3844 626.493 68.4452 571.603 68.7492 569.437 68.7492 567.682 70.5045 567.682 72.6699L567.682 389.427C567.682 391.068 568.472 391.888 570.053 391.888 630.505 392.071 691.777 389.882 752.32 391.615 793.351 392.709 841.676 383.044 870.671 352.864 911.519 310.465 911.793 234.969 899.119 180.717ZM959.844 584.185C961.576 514.342 942.155 448.875 875.412 418.878 852.253 408.483 827.026 402.739 799.733 401.645 729.586 398.848 653.482 398.18 571.42 399.639 569.341 399.688 567.681 401.388 567.682 403.468L567.682 756.606C567.681 758.685 569.341 760.385 571.42 760.435 637.07 761.955 703.387 761.742 770.374 759.797 879.515 756.514 956.926 699.345 959.844 584.185Z" transform="matrix(1.00024 0 0 1 -183 175.032)"/><path d="M3412.29 770.647C3387.98 773.808 3373.12 770.13 3367.71 759.614 3368.44 758.946 3369.07 758.338 3369.62 757.791 3370.44 756.974 3370.9 755.825 3370.9 754.6L3370.9 75.3141C3370.9 71.7891 3368.08 68.9315 3364.61 68.9315L3305.43 68.7492C3304.03 68.7492 3303.3 68.0501 3303.24 66.652L3303.15 64.099C3303.15 62.8833 3303.76 62.2754 3304.97 62.2754 3406.37 62.0323 3507.51 62.0019 3608.42 62.1843 3697.87 62.3666 3806.55 94.9176 3828.62 195.762 3838.16 239.224 3831.9 277.337 3809.83 310.101 3788.5 341.892 3758.07 366.115 3718.56 382.771 3707.8 387.329 3696.5 386.418 3686.01 390.885 3680.79 393.135 3681 394.533 3686.65 395.08 3796.98 406.021 3893.08 464.832 3884.51 588.015 3883.42 603.759 3879.5 619.441 3872.75 635.064 3827.43 740.376 3702.24 771.924 3599.3 772.744 3536.75 773.231 3474.42 772.531 3412.29 770.647ZM3765.89 188.832C3750.39 109.962 3685.01 70.5727 3608.05 69.0227 3550.73 67.9286 3492.8 67.9285 3434.27 69.0227 3432.99 69.0718 3431.99 70.0781 3431.99 71.3022L3432.26 387.147C3432.26 390.49 3433.93 392.162 3437.28 392.162 3491.74 391.736 3550.76 391.645 3614.35 391.888 3683.19 392.071 3747.1 371.282 3764.7 296.788 3772.85 262.323 3773.24 226.337 3765.89 188.832ZM3613.89 760.8C3702.06 760.07 3784.49 735.087 3814.21 645.914 3830.99 595.492 3828.53 508.689 3796.52 466.108 3766.68 426.537 3725.68 405.383 3673.52 402.648 3601.92 398.879 3522.32 398.028 3434.72 400.095 3433.3 400.144 3432.17 401.313 3432.17 402.739L3432.17 756.879C3432.17 759.095 3433.93 760.891 3436.09 760.891 3497.06 761.316 3556.33 761.286 3613.89 760.8Z" transform="matrix(1.00024 0 0 1 -183 175.032)"/><path d="M738.096 68.5668C812.407 68.9315 880.974 103.306 899.119 180.717 911.793 234.969 911.519 310.465 870.671 352.864 841.676 383.044 793.351 392.709 752.32 391.615 691.777 389.882 630.505 392.071 570.053 391.888 568.472 391.888 567.682 391.068 567.682 389.427L567.682 72.6699C567.682 70.5045 569.437 68.7492 571.603 68.7492 626.493 68.4452 681.99 68.3844 738.096 68.5668Z" fill="#FFFFFF" transform="matrix(1.00024 0 0 1 -183 175.032)"/><path d="M3765.89 188.832C3773.24 226.337 3772.85 262.323 3764.7 296.788 3747.1 371.282 3683.19 392.071 3614.35 391.888 3550.76 391.645 3491.74 391.736 3437.28 392.162 3433.93 392.162 3432.26 390.49 3432.26 387.147L3431.99 71.3022C3431.99 70.0781 3432.99 69.0718 3434.27 69.0227 3492.8 67.9286 3550.73 67.9285 3608.05 69.0227 3685.01 70.5727 3750.39 109.962 3765.89 188.832Z" fill="#FFFFFF" transform="matrix(1.00024 0 0 1 -183 175.032)"/><path d="M4345.88 355.873 4349.07 708.554C4353.57 734.023 4358.34 749.463 4363.38 754.873 4395.3 789.704 4441.16 768.003 4461.4 732.99 4462.37 731.349 4463.71 730.954 4465.41 731.805L4467.42 732.808C4468.15 733.172 4468.36 733.719 4468.06 734.449 4455.17 763.565 4431.37 778.276 4396.66 778.58 4321.35 779.309 4288.16 724.055 4287.16 656.947 4286.25 602.968 4286.19 550.084 4286.98 498.295 4287.04 495.255 4285.58 493.371 4282.6 492.642 4279.19 491.851 4275.67 492.155 4272.02 493.553 4272.08 489.906 4272.96 486.988 4274.67 484.8 4277.4 485.347 4279.89 485.408 4282.14 484.982 4285.55 484.314 4287.19 482.247 4287.07 478.782 4285.61 430.184 4293.18 365.994 4275.58 323.778 4237.56 232.325 4130.6 221.657 4049.36 257.034 3996.54 280.072 3972.98 321.133 3978.7 380.217 3979 383.439 3980.19 386.296 3982.25 388.788 3984.02 390.977 3985.29 393.256 3986.08 395.627 3986.84 398.027 3985.55 400.587 3983.2 401.344 3982.72 401.5 3982.21 401.571 3981.71 401.553 3980.67 401.553 3979.64 401.371 3978.61 401.006 3976.05 400.095 3974.32 398.362 3973.41 395.809 3957.73 349.916 3967.73 310.101 4003.41 276.364 4070.88 212.448 4209.29 220.836 4283.88 265.788 4316.58 285.482 4337.25 315.511 4345.88 355.873Z" transform="matrix(1.00024 0 0 1 -183 175.032)"/><path d="M4614.58 423.436C4610.27 448.48 4607.9 466.899 4607.47 478.691 4606.62 505.133 4608.44 537.897 4612.94 576.982L4613.4 754.417C4613.4 759.568 4617.59 763.759 4622.79 763.809L4682.97 763.991C4685.03 763.991 4686.04 765.024 4685.98 767.091L4685.98 769.735C4685.93 771.059 4684.84 772.107 4683.51 772.106L4608.66 770.829C4595.22 770.586 4581.7 770.1 4568.08 769.371 4558.72 768.884 4553.37 765.389 4552.03 758.885 4552.94 529.964 4552.88 361.343 4551.85 253.022 4551.79 250.105 4549.6 249.193 4545.29 250.287 4547.35 244.148 4550.18 241.716 4553.77 242.993 4628.99 233.692 4616.22 316.483 4611.21 372.923 4611.09 374.625 4611.88 375.446 4613.58 375.385 4614.61 375.385 4615.31 374.899 4615.68 373.926 4625.65 347.059 4638.23 322.501 4653.42 300.253 4693.45 241.899 4763.2 215.912 4828.94 242.81 4857.51 254.481 4874.32 276.638 4879.37 309.28 4884.23 340.889 4875.69 366.784 4853.75 386.965 4853.14 387.573 4852.53 387.573 4851.92 386.965L4850.01 385.324C4847.21 382.71 4847.12 380.035 4849.73 377.3 4863.84 362.286 4870.67 344.901 4870.25 325.145 4869.03 275.422 4843.5 247.643 4793.66 241.807 4687.34 229.316 4627.62 333.898 4614.58 423.436Z" transform="matrix(1.00024 0 0 1 -183 175.032)"/><path d="M1707.06 242.446 1705.33 250.561 1641.41 251.29C1638.67 251.351 1637.31 250.014 1637.31 247.278L1637.21 243.813C1637.21 241.648 1638.97 239.891 1641.13 239.888 1641.19 239.888 1641.26 239.89 1641.32 239.893L1707.06 242.446Z" fill="#6B686A" transform="matrix(1.00024 0 0 1 -183 175.032)"/><path d="M1705.33 250.561 1707.06 242.446C1744.81 238.89 1768.6 256.578 1768.51 293.232 1768.15 420.701 1768.18 546.924 1768.6 671.9 1768.7 701.442 1767.69 767.273 1810.46 772.653 1843.83 776.847 1867.53 764.052 1881.58 734.267 1881.77 733.801 1882.3 733.578 1882.77 733.77 1882.79 733.782 1882.82 733.795 1882.85 733.811L1885.04 734.905C1886.68 735.756 1887.14 737.032 1886.41 738.734 1878.38 757.031 1864.86 769.31 1845.83 775.571 1771.43 800.007 1708.06 748.035 1709.16 672.082 1709.28 661.749 1706.51 660.928 1700.86 669.62 1660.28 732.169 1618.71 770.829 1542.57 784.142L1508.65 784.142C1494.61 780.859 1480.54 777.546 1466.44 774.203 1422.37 763.748 1392.28 741.227 1376.17 706.639 1366.63 686.094 1361.94 659.955 1362.13 628.225 1362.73 509.814 1362.83 385.779 1362.4 256.123 1362.4 252.648 1359.58 249.831 1356.11 249.831L1292.83 249.193C1292.22 249.193 1291.92 248.919 1291.92 248.372L1292.01 245.637C1292.01 243.813 1292.95 242.871 1294.84 242.81 1328.03 241.595 1357.66 241.899 1383.74 243.722 1413.46 245.819 1423.13 274.997 1422.94 300.892 1422.09 414.379 1422.18 528.353 1423.22 642.814 1423.58 684.847 1430.51 729.069 1464.43 755.42 1506.37 788.062 1576.03 771.285 1617.7 744.752 1649.01 724.814 1676.21 694.634 1699.31 654.211 1705.51 643.391 1708.58 629.319 1708.52 611.995 1708.46 492.49 1708.46 373.379 1708.52 254.664 1708.52 251.564 1707.45 250.196 1705.33 250.561Z" transform="matrix(1.00024 0 0 1 -183 175.032)"/><path d="M4553.77 242.993C4550.18 241.716 4547.35 244.148 4545.29 250.287L4485.29 251.108C4483.63 251.159 4482.24 249.854 4482.19 248.193 4482.19 248.192 4482.19 248.191 4482.19 248.19L4482.1 245.363C4482.04 242.75 4483.31 241.473 4485.93 241.534L4553.77 242.993Z" fill="#6B686A" transform="matrix(1.00024 0 0 1 -183 175.032)"/><path d="M2243.92 384.868C2210.82 354.687 2190.58 306.818 2189.31 260.59 2189.27 258.727 2190.75 257.19 2192.62 257.156 2193.21 257.145 2193.8 257.292 2194.32 257.581 2245.14 285.421 2268.81 324.993 2265.35 376.297 2264.19 393.986 2257.05 396.843 2243.92 384.868Z" fill="#FFFFFF" transform="matrix(1.00024 0 0 1 -183 175.032)"/><path d="M4345.88 355.873C4348.86 378.12 4350.38 393.986 4350.44 403.468 4351.17 505.163 4350.71 606.859 4349.07 708.554L4345.88 355.873Z" fill="#6B686A" transform="matrix(1.00024 0 0 1 -183 175.032)"/><path d="M875.412 418.878C942.155 448.875 961.576 514.342 959.844 584.185 956.926 699.345 879.515 756.514 770.374 759.797 703.387 761.742 637.07 761.955 571.42 760.435 569.341 760.385 567.681 758.685 567.682 756.606L567.682 403.468C567.681 401.388 569.341 399.688 571.42 399.639 653.482 398.18 729.586 398.848 799.733 401.645 827.026 402.739 852.253 408.483 875.412 418.878Z" fill="#FFFFFF" transform="matrix(1.00024 0 0 1 -183 175.032)"/><path d="M3814.21 645.914C3784.49 735.087 3702.06 760.07 3613.89 760.8 3556.33 761.286 3497.06 761.316 3436.09 760.891 3433.93 760.891 3432.17 759.095 3432.17 756.879L3432.17 402.739C3432.17 401.313 3433.3 400.144 3434.72 400.095 3522.32 398.028 3601.91 398.879 3673.52 402.648 3725.68 405.383 3766.68 426.537 3796.52 466.108 3828.53 508.689 3830.99 595.492 3814.21 645.914Z" fill="#FFFFFF" transform="matrix(1.00024 0 0 1 -183 175.032)"/><path d="M4614.58 423.436 4612.94 576.982C4608.44 537.897 4606.62 505.133 4607.47 478.691 4607.9 466.899 4610.27 448.48 4614.58 423.436Z" fill="#6B686A" transform="matrix(1.00024 0 0 1 -183 175.032)"/><path d="M3207.5 431.734C3209.72 431.734 3211.52 433.53 3211.52 435.746L3211.52 462.552C3211.52 464.768 3209.72 466.564 3207.5 466.564L2962.78 466.564C2960.56 466.564 2958.77 464.768 2958.77 462.552L2958.77 435.746C2958.77 433.53 2960.56 431.734 2962.78 431.734Z" transform="matrix(1.00024 0 0 1 -183 175.032)"/><path d="M4274.67 484.8C4272.96 486.988 4272.08 489.906 4272.02 493.553L4181.02 494.192C4182.12 490.544 4178.11 488.265 4168.99 487.353 4203.46 481.578 4238.68 480.727 4274.67 484.8Z" fill="#6B686A" transform="matrix(1.00024 0 0 1 -183 175.032)"/><path d="M4168.99 487.353C4178.11 488.265 4182.12 490.544 4181.02 494.192 4158.17 498.872 4135.25 503.006 4112.28 506.592 4102.06 508.172 4081.91 518.415 4051.82 537.319 4016.08 559.689 3996.33 588.866 3992.56 624.851 3990.92 640.777 3991.34 658.709 3993.83 678.647 4000.95 736.09 4043.44 775.753 4102.52 772.744 4186.13 768.459 4247.49 722.687 4269.2 640.717 4269.68 638.771 4270.81 638.285 4272.57 639.258L4275.03 640.534C4275.89 641.015 4276.31 642.002 4276.03 642.905 4259.68 702.232 4226.4 742.351 4176.19 763.262 4112.79 789.643 4052.19 788.579 3994.38 760.07 3947.24 736.728 3921.62 679.468 3929.55 628.134 3937.52 576.648 3965.57 540.328 4013.71 519.175 4059.24 499.115 4111 488.508 4168.99 487.353Z" transform="matrix(1.00024 0 0 1 -183 175.032)"/><path d="M3367.71 759.614C3373.12 770.13 3387.98 773.808 3412.29 770.647L3310.72 775.297C3306.65 775.48 3303.88 773.656 3302.42 769.826L3300.96 765.997C3299.02 760.83 3300.81 758.277 3306.34 758.338L3367.71 759.614Z" fill="#6B686A" transform="matrix(1.00024 0 0 1 -183 175.032)"/><path d="M4552.03 758.885C4553.37 765.389 4558.72 768.884 4568.08 769.371 4581.7 770.1 4595.22 770.586 4608.66 770.829L4492.31 775.753C4487.69 775.996 4485.11 773.808 4484.56 769.188L4484.2 765.815C4483.94 763.259 4485.72 760.983 4488.18 760.731 4488.31 760.717 4488.44 760.71 4488.57 760.709L4552.03 758.885Z" fill="#6B686A" transform="matrix(1.00024 0 0 1 -183 175.032)"/><path d="M501.395 760.435C503.765 768.398 513.674 772.076 531.119 771.468 547.957 770.86 564.734 770.769 581.45 771.194L444.864 774.932C439.636 775.054 436.931 772.501 436.749 767.273L436.566 763.353C436.515 761.238 438.188 759.483 440.302 759.432 440.364 759.431 440.425 759.431 440.487 759.432L501.395 760.435Z" fill="#6B686A" transform="matrix(1.00024 0 0 1 -183 175.032)"/></g></g></g></g></svg>